<svg width="260" height="260" viewBox="0 0 260 260" fill="none" xmlns="http://www.w3.org/2000/svg">
<path d="M260 130C260 107.794 254.312 85.9579 243.478 66.5741C232.643 47.1902 217.024 30.9048 198.11 19.2705C179.196 7.63616 157.616 1.04087 135.429 0.11343C113.243 -0.814009 91.1882 3.95732 71.3688 13.9725L130 130H260Z" fill="#5C6BC0"/>
<path d="M25.1723 53.1159C37.3054 36.573 53.1815 23.1366 71.5024 13.9051L130 130L25.1723 53.1159Z" fill="#42A5F5"/>
<path d="M25.143 53.156C13.0162 69.7035 4.97787 88.8862 1.68525 109.136C-1.60738 129.385 -0.0608209 150.126 6.19846 169.663L130 130L25.143 53.156Z" fill="#66BB6A"/>
<path d="M253.461 170.711C244.864 196.784 228.233 219.465 205.952 235.505C183.672 251.544 156.886 260.119 129.433 259.999C101.98 259.879 75.2693 251.071 53.1297 234.838C30.9902 218.604 14.5581 195.779 6.18854 169.632L130 130L253.461 170.711Z" fill="#FFA726"/>
<path d="M253.461 170.711C259.886 151.228 261.608 130.501 258.487 110.224C255.366 89.9474 247.491 70.6973 235.505 54.0475C223.519 37.3978 207.762 23.8212 189.524 14.4278C171.285 5.03432 151.082 0.0907509 130.567 0.00123747L130 130L253.461 170.711Z" fill="#EF5350"/>
</svg>
