<svg width="168" height="32" viewBox="0 0 168 32" fill="none" xmlns="http://www.w3.org/2000/svg">
<path d="M47.436 12.916H53.344V15.1L52.476 15.156C52.1027 15.1933 51.8507 15.4173 51.72 15.828L48.108 27H43.824L39.904 15.856C39.8107 15.5947 39.708 15.4173 39.596 15.324C39.5027 15.2307 39.3347 15.1747 39.092 15.156L38.28 15.1V12.916H44.86V15.156L43.152 15.24L46.036 24.452H46.092L48.892 15.24L47.436 15.156V12.916ZM61.2853 12.496C62.6853 12.496 63.7959 12.8413 64.6173 13.532C65.4386 14.204 65.8493 15.156 65.8493 16.388C65.8493 17.2093 65.6719 17.9373 65.3173 18.572C64.9626 19.188 64.5239 19.6733 64.0013 20.028C63.4786 20.3827 62.8439 20.672 62.0973 20.896C60.8466 21.2693 59.4373 21.456 57.8693 21.456C57.9253 22.4453 58.2333 23.248 58.7933 23.864C59.3533 24.4613 60.2119 24.76 61.3693 24.76C62.5266 24.76 63.6839 24.3493 64.8413 23.528L65.9053 25.796C65.5319 26.132 64.8973 26.4773 64.0013 26.832C63.1239 27.1867 62.1159 27.364 60.9773 27.364C58.6999 27.364 57.0293 26.7387 55.9653 25.488C54.9013 24.2187 54.3693 22.4827 54.3693 20.28C54.3693 18.0773 54.9759 16.2293 56.1893 14.736C57.4026 13.2427 59.1013 12.496 61.2853 12.496ZM59.9973 18.908C60.6879 18.7773 61.3226 18.5067 61.9013 18.096C62.4799 17.6667 62.7693 17.1627 62.7693 16.584C62.7693 15.4453 62.2093 14.876 61.0893 14.876C60.0439 14.876 59.2413 15.296 58.6813 16.136C58.1213 16.9573 57.8133 17.9467 57.7573 19.104C58.5786 19.0853 59.3253 19.02 59.9973 18.908ZM72.5518 7.036V24.676L74.1478 24.76V27H67.4838V24.872L68.4078 24.788C68.9491 24.732 69.2198 24.4333 69.2198 23.892V10.088C69.2198 9.67733 68.9864 9.45333 68.5198 9.416L67.5398 9.36V7.036H72.5518ZM82.0396 24.956C84.0743 24.956 85.0916 23.3133 85.0916 20.028C85.0916 18.3667 84.8583 17.1067 84.3916 16.248C83.9436 15.3893 83.1783 14.96 82.0956 14.96C81.0316 14.96 80.2476 15.3707 79.7436 16.192C79.2396 17.0133 78.9876 18.1333 78.9876 19.552C78.9876 22.184 79.473 23.836 80.4436 24.508C80.873 24.8067 81.405 24.956 82.0396 24.956ZM75.5996 19.944C75.5996 18.5627 75.805 17.368 76.2156 16.36C76.6263 15.3333 77.177 14.5493 77.8676 14.008C79.193 13 80.6583 12.496 82.2636 12.496C83.3836 12.496 84.3263 12.6827 85.0916 13.056C85.8756 13.4107 86.4823 13.8307 86.9116 14.316C87.3596 14.7827 87.733 15.4733 88.0316 16.388C88.349 17.284 88.5076 18.348 88.5076 19.58C88.5076 22.156 87.8823 24.1067 86.6316 25.432C85.381 26.7573 83.7756 27.42 81.8156 27.42C79.8743 27.42 78.353 26.7947 77.2516 25.544C76.1503 24.2747 75.5996 22.408 75.5996 19.944ZM91.8766 23.864V15.268H89.4686V12.916H91.8766V11.852C91.8766 10.0227 92.2966 8.70667 93.1366 7.904C93.9206 7.13867 95.0686 6.756 96.5806 6.756C98.0926 6.756 99.4366 7.08267 100.613 7.736L99.8006 9.976C98.9046 9.50933 98.0646 9.276 97.2806 9.276C96.4966 9.276 95.9553 9.472 95.6566 9.864C95.3579 10.2373 95.2086 10.816 95.2086 11.6V12.916H99.3526V15.268H95.2086V24.648L97.5606 24.76V27H90.1406V24.872L91.0646 24.788C91.3446 24.7507 91.5499 24.676 91.6806 24.564C91.8113 24.4333 91.8766 24.2 91.8766 23.864ZM106.362 24.956C108.397 24.956 109.414 23.3133 109.414 20.028C109.414 18.3667 109.181 17.1067 108.714 16.248C108.266 15.3893 107.501 14.96 106.418 14.96C105.354 14.96 104.57 15.3707 104.066 16.192C103.562 17.0133 103.31 18.1333 103.31 19.552C103.31 22.184 103.796 23.836 104.766 24.508C105.196 24.8067 105.728 24.956 106.362 24.956ZM99.9224 19.944C99.9224 18.5627 100.128 17.368 100.538 16.36C100.949 15.3333 101.5 14.5493 102.19 14.008C103.516 13 104.981 12.496 106.586 12.496C107.706 12.496 108.649 12.6827 109.414 13.056C110.198 13.4107 110.805 13.8307 111.234 14.316C111.682 14.7827 112.056 15.4733 112.354 16.388C112.672 17.284 112.83 18.348 112.83 19.58C112.83 22.156 112.205 24.1067 110.954 25.432C109.704 26.7573 108.098 27.42 106.138 27.42C104.197 27.42 102.676 26.7947 101.574 25.544C100.473 24.2747 99.9224 22.408 99.9224 19.944ZM119.447 7.036V24.676L121.043 24.76V27H114.379V24.872L115.303 24.788C115.845 24.732 116.115 24.4333 116.115 23.892V10.088C116.115 9.67733 115.882 9.45333 115.415 9.416L114.435 9.36V7.036H119.447ZM127.563 12.916V24.676L129.159 24.76V27H122.495V24.872L123.419 24.788C123.961 24.732 124.231 24.4333 124.231 23.892V16.108C124.231 15.7907 124.175 15.576 124.063 15.464C123.97 15.352 123.793 15.296 123.531 15.296L122.551 15.24V12.916H127.563ZM124.035 10.508C123.643 10.116 123.447 9.62133 123.447 9.024C123.447 8.42667 123.643 7.932 124.035 7.54C124.427 7.12933 124.941 6.924 125.575 6.924C126.21 6.924 126.723 7.12933 127.115 7.54C127.526 7.932 127.731 8.42667 127.731 9.024C127.731 9.62133 127.526 10.116 127.115 10.508C126.723 10.8813 126.21 11.068 125.575 11.068C124.941 11.068 124.427 10.8813 124.035 10.508ZM136.94 24.956C138.975 24.956 139.992 23.3133 139.992 20.028C139.992 18.3667 139.759 17.1067 139.292 16.248C138.844 15.3893 138.079 14.96 136.996 14.96C135.932 14.96 135.148 15.3707 134.644 16.192C134.14 17.0133 133.888 18.1333 133.888 19.552C133.888 22.184 134.374 23.836 135.344 24.508C135.774 24.8067 136.306 24.956 136.94 24.956ZM130.5 19.944C130.5 18.5627 130.706 17.368 131.116 16.36C131.527 15.3333 132.078 14.5493 132.768 14.008C134.094 13 135.559 12.496 137.164 12.496C138.284 12.496 139.227 12.6827 139.992 13.056C140.776 13.4107 141.383 13.8307 141.812 14.316C142.26 14.7827 142.634 15.4733 142.932 16.388C143.25 17.284 143.408 18.348 143.408 19.58C143.408 22.156 142.783 24.1067 141.532 25.432C140.282 26.7573 138.676 27.42 136.716 27.42C134.775 27.42 133.254 26.7947 132.152 25.544C131.051 24.2747 130.5 22.408 130.5 19.944Z" fill="#37474F"/>
<path d="M28 18C28 15.6086 27.3874 13.257 26.2207 11.1695C25.0539 9.08202 23.3719 7.32821 21.3349 6.07528C19.298 4.82236 16.9741 4.11209 14.5847 4.01222C12.1954 3.91234 9.82027 4.42617 7.68587 5.50473L14 18H28Z" fill="#5C6BC0"/>
<path d="M2.71087 9.72018C4.01751 7.93864 5.72724 6.49163 7.70026 5.49747L14 18L2.71087 9.72018Z" fill="#42A5F5"/>
<path d="M2.7077 9.72449C1.40174 11.5065 0.536078 13.5724 0.181488 15.7531C-0.173102 17.9338 -0.00654994 20.1674 0.667527 22.2714L14 18L2.7077 9.72449Z" fill="#66BB6A"/>
<path d="M27.2958 22.3843C26.3699 25.1921 24.5789 27.6347 22.1795 29.362C19.7801 31.0894 16.8954 32.0128 13.9389 31.9999C10.9824 31.987 8.10592 31.0384 5.72166 29.2902C3.3374 27.542 1.56779 25.0839 0.666458 22.2681L14 18L27.2958 22.3843Z" fill="#FFA726"/>
<path d="M27.2958 22.3843C27.9877 20.2861 28.1732 18.0539 27.8371 15.8703C27.501 13.6866 26.6528 11.6136 25.362 9.8205C24.0712 8.02746 22.3744 6.56536 20.4102 5.55376C18.4461 4.54216 16.2704 4.00977 14.0611 4.00013L14 18L27.2958 22.3843Z" fill="#EF5350"/>
<rect x="142" width="26" height="14" rx="2" fill="#EF5350"/>
<path d="M147.79 10.12C147.543 10.12 147.31 10.0667 147.09 9.96C146.87 9.85333 146.683 9.69667 146.53 9.49L146.34 10H145.48V3.29H146.71V3.38C146.67 3.42 146.643 3.46667 146.63 3.52C146.623 3.56667 146.62 3.64333 146.62 3.75V5.87C146.76 5.67667 146.937 5.52333 147.15 5.41C147.37 5.29 147.6 5.23333 147.84 5.24C148.407 5.24667 148.86 5.44667 149.2 5.84C149.547 6.22667 149.72 6.81333 149.72 7.6C149.72 8.16667 149.63 8.63667 149.45 9.01C149.27 9.38333 149.033 9.66333 148.74 9.85C148.447 10.03 148.13 10.12 147.79 10.12ZM147.56 9.24C147.84 9.24 148.08 9.12667 148.28 8.9C148.487 8.66667 148.59 8.26667 148.59 7.7C148.59 7.19333 148.5 6.8 148.32 6.52C148.147 6.23333 147.9 6.09 147.58 6.09C147.287 6.09 147.053 6.23 146.88 6.51C146.713 6.78333 146.63 7.16333 146.63 7.65C146.63 8.16333 146.703 8.55667 146.85 8.83C147.003 9.10333 147.24 9.24 147.56 9.24ZM152.61 10.11C152.163 10.11 151.763 10.0167 151.41 9.83C151.063 9.64333 150.79 9.37 150.59 9.01C150.39 8.65 150.29 8.21667 150.29 7.71C150.29 7.19 150.387 6.74667 150.58 6.38C150.78 6.01333 151.043 5.73333 151.37 5.54C151.703 5.34 152.073 5.24 152.48 5.24C152.84 5.24 153.17 5.32333 153.47 5.49C153.777 5.65667 154.02 5.91 154.2 6.25C154.387 6.58333 154.48 7 154.48 7.5C154.48 7.56667 154.477 7.64667 154.47 7.74C154.47 7.83333 154.467 7.91333 154.46 7.98H151.38C151.393 8.27333 151.463 8.51333 151.59 8.7C151.717 8.88 151.873 9.01333 152.06 9.1C152.247 9.18667 152.447 9.23 152.66 9.23C152.867 9.23 153.063 9.19667 153.25 9.13C153.437 9.06333 153.61 8.95 153.77 8.79L154.35 9.35C154.123 9.61667 153.863 9.81 153.57 9.93C153.277 10.05 152.957 10.11 152.61 10.11ZM151.4 7.13H153.38C153.38 6.80333 153.297 6.55333 153.13 6.38C152.963 6.20667 152.73 6.12 152.43 6.12C152.17 6.12 151.943 6.20333 151.75 6.37C151.557 6.53 151.44 6.78333 151.4 7.13ZM157.79 10.1C157.43 10.1 157.133 10.0233 156.9 9.87C156.667 9.71 156.497 9.44667 156.39 9.08C156.283 8.71333 156.243 8.21667 156.27 7.59L156.32 6.24H155.37L155.39 5.35H156.36L156.4 4.25L157.57 4.1L157.66 4.09L157.67 4.18C157.637 4.22667 157.607 4.27667 157.58 4.33C157.56 4.37667 157.547 4.45333 157.54 4.56L157.47 5.35H158.97L158.96 6.24H157.46L157.4 7.57C157.38 8.00333 157.393 8.33667 157.44 8.57C157.493 8.80333 157.57 8.96667 157.67 9.06C157.777 9.14667 157.903 9.19 158.05 9.19C158.263 9.19 158.453 9.14667 158.62 9.06C158.793 8.97333 158.953 8.87333 159.1 8.76L159.34 9.58C159.107 9.74667 158.863 9.87667 158.61 9.97C158.357 10.0567 158.083 10.1 157.79 10.1ZM161.68 10.12C161.167 10.12 160.767 10 160.48 9.76C160.2 9.52 160.06 9.20333 160.06 8.81C160.06 8.31667 160.28 7.91 160.72 7.59C161.167 7.26333 161.813 7.1 162.66 7.1C162.707 7.1 162.767 7.1 162.84 7.1C162.92 7.1 163.003 7.10333 163.09 7.11C163.043 6.72333 162.933 6.46333 162.76 6.33C162.587 6.19 162.353 6.12 162.06 6.12C161.847 6.12 161.647 6.15667 161.46 6.23C161.273 6.29667 161.087 6.42333 160.9 6.61L160.28 5.93C160.547 5.68333 160.837 5.50667 161.15 5.4C161.463 5.29333 161.783 5.24 162.11 5.24C162.497 5.24 162.85 5.30333 163.17 5.43C163.49 5.55 163.743 5.76333 163.93 6.07C164.117 6.37 164.21 6.78667 164.21 7.32V10H163.04V9.5C162.867 9.73333 162.667 9.89667 162.44 9.99C162.213 10.0767 161.96 10.12 161.68 10.12ZM161.19 8.67C161.19 8.88333 161.257 9.03333 161.39 9.12C161.53 9.2 161.7 9.24 161.9 9.24C162.26 9.24 162.54 9.13333 162.74 8.92C162.94 8.7 163.06 8.35667 163.1 7.89C163.013 7.89 162.93 7.89 162.85 7.89C162.77 7.88333 162.7 7.88 162.64 7.88C162.107 7.88 161.73 7.95333 161.51 8.1C161.297 8.24667 161.19 8.43667 161.19 8.67Z" fill="white"/>
</svg>
