<svg xmlns="http://www.w3.org/2000/svg" width="24" height="24" viewBox="0 0 24 24" fill="currentColor"><path d="M20.759 20.498c-2.342-3.663-5.575-6.958-5.743-11.498h-2.016c.173 5.212 3.512 8.539 5.953 12.356.143.302-.068.644-.377.644h-1.264l-4.734-7h-3.52c.873-1.665 1.85-3.414 1.936-6h-2.01c-.169 4.543-3.421 7.864-5.743 11.498-.165.347-.241.707-.241 1.057 0 1.283 1.023 2.445 2.423 2.445h13.153c1.4 0 2.424-1.162 2.424-2.446 0-.35-.076-.709-.241-1.056zm-4.759-15.498c0 1.105-.896 2-2 2s-2-.895-2-2 .896-2 2-2 2 .895 2 2zm-5-1.5c0 .829-.672 1.5-1.5 1.5s-1.5-.671-1.5-1.5.672-1.5 1.5-1.5 1.5.671 1.5 1.5zm0 3.5c0 .552-.447 1-1 1s-1-.448-1-1 .447-1 1-1 1 .448 1 1zm3-6c0 .552-.447 1-1 1s-1-.448-1-1 .447-1 1-1 1 .448 1 1z"/></svg>